<?xml version="1.0" encoding="UTF-8" standalone="no" ?>
<!DOCTYPE svg PUBLIC "-//W3C//DTD SVG 1.1//EN" "http://www.w3.org/Graphics/SVG/1.1/DTD/svg11.dtd">
<svg xmlns="http://www.w3.org/2000/svg" xmlns:xlink="http://www.w3.org/1999/xlink" version="1.1" width="345.6" height="465.67" viewBox="71.75 16.974999999999994 345.6 465.67" xml:space="preserve">
<desc>Created with Fabric.js 4.6.0</desc>
<defs>
</defs>
<g transform="matrix(1 0 0 1 244.55 249.81)" id="r6xWUNV5fgbZpqNXcqCVI"  >
<g style="" vector-effect="non-scaling-stroke"   >
		<g transform="matrix(1.08 0 0 1.08 21.6 -81.64)" id="aRD_9YTB6jd8fug8_eV6Z"  >
<path style="stroke: rgb(156,84,233); stroke-width: 0; stroke-dasharray: none; stroke-linecap: butt; stroke-dashoffset: 0; stroke-linejoin: miter; stroke-miterlimit: 4; fill: rgb(108,59,244); fill-rule: nonzero; opacity: 1;" vector-effect="non-scaling-stroke"  transform=" translate(-140, -140)" d="M 0 142.14654 C 0 63.64116999999999 63.64117 0 142.14654 0 L 145.34797999999998 0 C 219.71423999999996 0 280 60.28576 280 134.65202 L 280 145.34797 C 280 219.71423 219.71424 279.99999 145.34798 279.99999 L 0 279.99999 z M 80 199.94503 L 142.2338 199.94503 C 174.10683 199.94503 199.94503 174.10683 199.94503 142.2338 L 199.94503 137.71123 C 199.94503 105.8382 174.10683 80 142.2338 80 L 140.92335 80 C 107.27632 80 80.00001 107.27631 80.00001 140.92334 z" stroke-linecap="round" />
</g>
		<g transform="matrix(1.08 0 0 1.08 -151.2 26.36)" id="Gg4M7Bg27yZh9dTP2elN-"  >
<path style="stroke: rgb(0,0,0); stroke-width: 0; stroke-dasharray: none; stroke-linecap: butt; stroke-dashoffset: 0; stroke-linejoin: miter; stroke-miterlimit: 4; fill: rgb(90,49,204); fill-rule: nonzero; opacity: 1;" vector-effect="non-scaling-stroke"  transform=" translate(0, 0)" d="M 20 -40 L -10.715240000000001 -40 C -15.84307 -40 -20 -35.84307 -20 -30.71524 L -20 30.715249999999997 L -20 30.715249999999997 C -20 35.84308 -15.84307 40.000009999999996 -10.71524 40.000009999999996 L 20 40.000009999999996" stroke-linecap="round" />
</g>
		<g transform="matrix(1.08 0 0 1.08 21.6 -81.64)" id="wDCzCU7AZByr5kSUUDpvM"  >
<path style="stroke: rgb(0,0,0); stroke-width: 0; stroke-dasharray: none; stroke-linecap: butt; stroke-dashoffset: 0; stroke-linejoin: miter; stroke-miterlimit: 4; fill: rgb(255,255,255); fill-opacity: 0; fill-rule: nonzero; opacity: 1;" vector-effect="non-scaling-stroke"  transform=" translate(0, 0)" d="M 0 0" stroke-linecap="round" />
</g>
		<g transform="matrix(1.08 0 0 1.08 -115.23 -232.84)" id="4ScZ6bF6Kj7Hj0W6gZvDe"  >
<path style="stroke: rgb(0,0,0); stroke-width: 0; stroke-dasharray: none; stroke-linecap: butt; stroke-dashoffset: 0; stroke-linejoin: miter; stroke-miterlimit: 4; fill: rgb(255,255,255); fill-opacity: 0; fill-rule: nonzero; opacity: 1;" vector-effect="non-scaling-stroke"  transform=" translate(0, 0)" d="M 0 0" stroke-linecap="round" />
</g>
		<g transform="matrix(1.08 0 0 1.08 -54 144.16)" id="z3aa0Eq8IhyivroflLFzV"  >
<path style="stroke: rgb(156,84,233); stroke-width: 0; stroke-dasharray: none; stroke-linecap: butt; stroke-dashoffset: 0; stroke-linejoin: miter; stroke-miterlimit: 4; fill: rgb(108,59,244); fill-rule: nonzero; opacity: 1;" vector-effect="non-scaling-stroke"  transform=" translate(-70, -70)" d="M 137.70957 139.99814 L 134.65202000000002 139.99814 C 60.285760000000025 139.99814 2.842170943040401e-14 79.71238 2.842170943040401e-14 5.346120000000013 L 2.842170943040401e-14 1.3322676295501878e-14 L 79.88804000000003 1.3322676295501878e-14 L 79.88804000000003 2.4657100000000134 C 79.88804000000003 34.338740000000016 105.72624000000003 60.176940000000016 137.59927000000005 60.176940000000016 L 139.10858000000005 60.176940000000016 C 139.40622000000005 60.176940000000016 139.70337000000004 60.174810000000015 140.00000000000006 60.17055000000001 L 140.00000000000006 139.98006 C 139.23796000000004 139.99210000000002 138.47447000000005 139.99814 137.70957000000007 139.99814 z" stroke-linecap="round" />
</g>
		<g transform="matrix(1.08 0 0 1.08 63.98 176.56)" id="Ig4JVLP1juD_bGi7Evw6D"  >
<path style="stroke: rgb(0,0,0); stroke-width: 0; stroke-dasharray: none; stroke-linecap: butt; stroke-dashoffset: 0; stroke-linejoin: miter; stroke-miterlimit: 4; fill: rgb(108,59,244); fill-rule: nonzero; opacity: 1;" vector-effect="non-scaling-stroke"  transform=" translate(0, 0)" d="M -40 -40 L 40 -40 L 40 40 L -40 40" stroke-linecap="round" />
</g>
		<g transform="matrix(1.08 0 0 1.08 136.01 176.56)" id="ZNLEur9QHhFUtIGb-2FQH"  >
<path style="stroke: rgb(0,0,0); stroke-width: 0; stroke-dasharray: none; stroke-linecap: butt; stroke-dashoffset: 0; stroke-linejoin: miter; stroke-miterlimit: 4; fill: rgb(108,59,244); fill-rule: nonzero; opacity: 1;" vector-effect="non-scaling-stroke"  transform=" translate(0, 0)" d="M -18.33161 -50.46833 C -19.92849 -52.06521 -22.330060000000003 -52.54291 -24.41648 -51.67869 C -26.5029 -50.81447 -27.86328 -48.778510000000004 -27.86328 -46.52019 L -27.86328 46.520179999999996 L -27.86328 46.520179999999996 C -27.86328 48.778499999999994 -26.5029 50.81446 -24.41648 51.67868 C -22.33006 52.5429 -19.92849 52.0652 -18.33161 50.46832 L 24.8415 7.295209999999997 L 24.8415 7.295209999999997 C 28.87054 3.266169999999997 28.87054 -3.2661900000000035 24.8415 -7.295230000000002 z" stroke-linecap="round" />
</g>
		<g transform="matrix(1.08 0 0 1.08 -21.6 26.36)" id="uh7rVsk7MGp2kS5DUQ_Uj"  >
<linearGradient id="SVGID_32" gradientUnits="userSpaceOnUse" gradientTransform="matrix(1 0 0 1 -20 -40)"  x1="0" y1="40" x2="40" y2="40">
<stop offset="0%" style="stop-color:#5A31CC;stop-opacity: 1"/>
<stop offset="50%" style="stop-color:#6336E0;stop-opacity: 1"/>
<stop offset="100%" style="stop-color:#6C3BF4;stop-opacity: 1"/>
</linearGradient>
<path style="stroke: rgb(0,0,0); stroke-width: 0; stroke-dasharray: none; stroke-linecap: butt; stroke-dashoffset: 0; stroke-linejoin: miter; stroke-miterlimit: 4; fill: url(#SVGID_32); fill-rule: nonzero; opacity: 1;" vector-effect="non-scaling-stroke"  transform=" translate(0, 0)" d="M -20 -40 L 20 -40 L 20 40 L -20 40 z" stroke-linecap="round" />
</g>
</g>
</g>
</svg>